Coordinates
nRows=274
nColumns=2
inDegrees=yes
endheader
time	ankle_angle_r	
2.52823	 -5.277234	
2.56149	 -5.282748	
2.59476	 -5.286707	
2.62802	 -5.289744	
2.66129	 -5.292178	
2.69456	 -5.290021	
2.72782	 -5.279486	
2.76109	 -5.262720	
2.79435	 -5.246628	
2.82762	 -5.237880	
2.86089	 -5.237859	
2.89415	 -5.241797	
2.92742	 -5.238366	
2.96069	 -5.217030	
2.99395	 -5.186625	
3.02722	 -5.172292	
3.06048	 -5.184181	
3.09375	 -5.205275	
3.12702	 -5.216154	
3.16028	 -5.215273	
3.19355	 -5.210749	
3.22681	 -5.208849	
3.26008	 -5.213297	
3.29335	 -5.223752	
3.32661	 -5.234855	
3.35988	 -5.240756	
3.39315	 -5.240990	
3.42641	 -5.243804	
3.45968	 -5.257081	
3.49294	 -5.276312	
3.52621	 -5.291266	
3.55948	 -5.297426	
3.59274	 -5.296505	
3.62601	 -5.293294	
3.65927	 -5.290740	
3.69254	 -5.288830	
3.72581	 -5.289011	
3.75907	 -5.291504	
3.79234	 -5.293106	
3.8256	 -5.293455	
3.85887	 -5.293918	
3.89214	 -5.293009	
3.9254	 -5.290814	
3.95867	 -5.290107	
3.99194	 -5.291835	
4.0252	 -5.295331	
4.05847	 -5.298015	
4.09173	 -5.296472	
4.125	 -5.292336	
4.15827	 -5.288895	
4.19153	 -5.284329	
4.2248	 -5.276016	
4.25806	 -5.265418	
4.29133	 -5.255659	
4.3246	 -5.248204	
4.35786	 -5.241813	
4.39113	 -5.234754	
4.4244	 -5.227346	
4.45766	 -5.219371	
4.49093	 -5.209238	
4.52419	 -5.197996	
4.55746	 -5.189179	
4.59073	 -5.186244	
4.62399	 -5.190921	
4.65726	 -5.199613	
4.69052	 -5.205854	
4.72379	 -5.206822	
4.75706	 -5.202404	
4.79032	 -5.195951	
4.82359	 -5.194156	
4.85685	 -5.196122	
4.89012	 -5.194571	
4.92339	 -5.190977	
4.95665	 -5.190460	
4.98992	 -5.190369	
5.02319	 -5.191983	
5.05645	 -5.201297	
5.08972	 -5.212189	
5.12298	 -5.216440	
5.15625	 -5.219604	
5.18952	 -5.229755	
5.22278	 -5.246033	
5.25605	 -5.260888	
5.28931	 -5.267530	
5.32258	 -5.265060	
5.35585	 -5.255275	
5.38911	 -5.240089	
5.42238	 -5.225273	
5.45565	 -5.220120	
5.48891	 -5.228606	
5.52218	 -5.245330	
5.55544	 -5.260446	
5.58871	 -5.264316	
5.62198	 -5.254287	
5.65524	 -5.238942	
5.68851	 -5.228148	
5.72177	 -5.223160	
5.75504	 -5.221107	
5.78831	 -5.220202	
5.82157	 -5.215895	
5.85484	 -5.201549	
5.8881	 -5.182725	
5.92137	 -5.179455	
5.95464	 -5.198097	
5.9879	 -5.218291	
6.02117	 -5.223752	
6.05444	 -5.219468	
6.0877	 -5.209187	
6.12097	 -5.188405	
6.15423	 -5.162172	
6.1875	 -5.146265	
6.22077	 -5.150210	
6.25403	 -5.165451	
6.2873	 -5.176805	
6.32056	 -5.182174	
6.35383	 -5.186919	
6.3871	 -5.193069	
6.42036	 -5.204957	
6.45363	 -5.224918	
6.4869	 -5.244392	
6.52016	 -5.251065	
6.55343	 -5.238721	
6.58669	 -5.215847	
6.61996	 -5.203039	
6.65323	 -5.209749	
6.68649	 -5.225500	
6.71976	 -5.238159	
6.75302	 -5.242278	
6.78629	 -5.234372	
6.81956	 -5.218486	
6.85282	 -5.202873	
6.88609	 -5.189500	
6.91935	 -5.183645	
6.95262	 -5.189542	
6.98589	 -5.193439	
7.01915	 -5.182073	
7.05242	 -5.162414	
7.08569	 -5.148400	
7.11895	 -5.147740	
7.15222	 -5.160184	
7.18548	 -5.176306	
7.21875	 -5.186979	
7.25202	 -5.192265	
7.28528	 -5.192614	
7.31855	 -5.186976	
7.35181	 -5.179298	
7.38508	 -5.177072	
7.41835	 -5.187304	
7.45161	 -5.205955	
7.48488	 -5.216994	
7.51815	 -5.215146	
7.55141	 -5.213888	
7.58468	 -5.223559	
7.61794	 -5.239011	
7.65121	 -5.250072	
7.68448	 -5.250960	
7.71774	 -5.244325	
7.75101	 -5.240265	
7.78427	 -5.245013	
7.81754	 -5.256414	
7.85081	 -5.269040	
7.88407	 -5.277894	
7.91734	 -5.282724	
7.9506	 -5.285270	
7.98387	 -5.284862	
8.01714	 -5.284201	
8.0504	 -5.288125	
8.08367	 -5.294508	
8.11694	 -5.298278	
8.1502	 -5.298419	
8.18347	 -5.295561	
8.21673	 -5.292547	
8.25	 -5.293225	
8.28327	 -5.296516	
8.31653	 -5.299260	
8.3498	 -5.300065	
8.38306	 -5.299137	
8.41633	 -5.299947	
8.4496	 -5.303361	
8.48286	 -5.303439	
8.51613	 -5.299726	
8.5494	 -5.299434	
8.58266	 -5.302695	
8.61593	 -5.303529	
8.64919	 -5.300526	
8.68246	 -5.295110	
8.71573	 -5.288606	
8.74899	 -5.283261	
8.78226	 -5.281217	
8.81552	 -5.283723	
8.84879	 -5.287809	
8.88206	 -5.283563	
8.91532	 -5.261996	
8.94859	 -5.226848	
8.98185	 -5.195183	
9.01512	 -5.183458	
9.04839	 -5.191118	
9.08165	 -5.200499	
9.11492	 -5.200595	
9.14819	 -5.200349	
9.18145	 -5.205072	
9.21472	 -5.205714	
9.24798	 -5.199323	
9.28125	 -5.193101	
9.31452	 -5.192285	
9.34778	 -5.193906	
9.38105	 -5.191987	
9.41431	 -5.188895	
9.44758	 -5.188946	
9.48085	 -5.190213	
9.51411	 -5.194021	
9.54738	 -5.202376	
9.58065	 -5.207925	
9.61391	 -5.203941	
9.64718	 -5.194518	
9.68044	 -5.186991	
9.71371	 -5.184245	
9.74698	 -5.186549	
9.78024	 -5.192592	
9.81351	 -5.197344	
9.84677	 -5.196331	
9.88004	 -5.193943	
9.91331	 -5.197811	
9.94657	 -5.203750	
9.97984	 -5.198195	
10.0131	 -5.175600	
10.0464	 -5.144975	
10.0796	 -5.119988	
10.1129	 -5.107278	
10.1462	 -5.105424	
10.1794	 -5.113236	
10.2127	 -5.133614	
10.246	 -5.163263	
10.2792	 -5.187417	
10.3125	 -5.197400	
10.3458	 -5.201783	
10.379	 -5.210038	
10.4123	 -5.219971	
10.4456	 -5.223466	
10.4788	 -5.215344	
10.5121	 -5.203175	
10.5454	 -5.201073	
10.5786	 -5.208948	
10.6119	 -5.218600	
10.6452	 -5.229927	
10.6784	 -5.241818	
10.7117	 -5.249539	
10.745	 -5.256033	
10.7782	 -5.266176	
10.8115	 -5.278614	
10.8448	 -5.289436	
10.878	 -5.294814	
10.9113	 -5.294517	
10.9446	 -5.292824	
10.9778	 -5.292592	
11.0111	 -5.294607	
11.0444	 -5.298594	
11.0776	 -5.301448	
11.1109	 -5.300635	
11.1442	 -5.296122	
11.1774	 -5.289553	
11.2107	 -5.286554	
11.244	 -5.291077	
11.2772	 -5.297812	
11.3105	 -5.300017	
11.3437	 -5.297005	
11.377	 -5.290846	
11.4103	 -5.286084	
11.4435	 -5.287621	
11.4768	 -5.292482	
11.5101	 -5.292568	
11.5433	 -5.284516	
11.5766	 -5.269252	
11.6099	 -5.249072	
